<?xml version="1.0" encoding="iso-8859-1"?>
<!-- Generator: Adobe Illustrator 16.0.0, SVG Export Plug-In . SVG Version: 6.00 Build 0)  -->
<!DOCTYPE svg PUBLIC "-//W3C//DTD SVG 1.1//EN" "http://www.w3.org/Graphics/SVG/1.1/DTD/svg11.dtd">
<svg version="1.1" id="Capa_1" xmlns="http://www.w3.org/2000/svg" xmlns:xlink="http://www.w3.org/1999/xlink" x="0px" y="0px"
	 width="285.958px" height="285.958px" viewBox="0 0 285.958 285.958" style="enable-background:new 0 0 285.958 285.958;"
	 xml:space="preserve">
<g>
	<path style="fill:#030303;" d="M285.955,63.312v-11.71H234.35V0h-11.71v51.603h-45.299V0h-11.71v51.603h-45.304V0h-11.71v51.603
		H63.315V0h-11.71v51.603H0.003v11.71h51.602v45.304H0.003v11.71h51.602v45.301H0.003v11.711h51.602v45.298H0.003v11.71h51.602
		v51.017h11.71v-51.005h45.301v51.6h11.71v-51.6h45.304v51.005h11.71v-51.005h45.299v51.6h11.71v-51.6h51.017v-11.71H234.35v-45.304
		h51.605v-11.711H234.35v-45.301h51.017v-11.711H234.35V63.318h51.605V63.312z M165.619,63.312v45.304h-45.298V63.312H165.619z
		 M165.619,120.327v45.301h-45.298v-45.301H165.619z M63.31,63.312h45.301v45.304H63.31V63.312z M63.31,120.327h45.301v45.301H63.31
		V120.327z M63.31,222.648v-45.304h45.301v45.304H63.31z M120.321,222.648v-45.304h45.298v45.304H120.321z M222.64,222.648h-45.31
		v-45.304h45.31V222.648z M222.64,165.634h-45.31v-45.301h45.31V165.634z M222.64,108.617h-45.31V63.312h45.31V108.617z"/>
</g>
<g>
</g>
<g>
</g>
<g>
</g>
<g>
</g>
<g>
</g>
<g>
</g>
<g>
</g>
<g>
</g>
<g>
</g>
<g>
</g>
<g>
</g>
<g>
</g>
<g>
</g>
<g>
</g>
<g>
</g>
</svg>
