<?xml version="1.0" encoding="iso-8859-1"?>
<!-- Generator: Adobe Illustrator 18.0.0, SVG Export Plug-In . SVG Version: 6.00 Build 0)  -->
<!DOCTYPE svg PUBLIC "-//W3C//DTD SVG 1.1//EN" "http://www.w3.org/Graphics/SVG/1.1/DTD/svg11.dtd">
<svg version="1.1" id="Capa_1" xmlns="http://www.w3.org/2000/svg" xmlns:xlink="http://www.w3.org/1999/xlink" x="0px" y="0px"
	 viewBox="0 0 314 314" style="enable-background:new 0 0 314 314;" xml:space="preserve">
<g>
	<path d="M299.258,29.793H14.741C6.613,29.793,0,36.282,0,44.258v225.484c0,7.976,6.613,14.465,14.741,14.465h284.517
		c8.129,0,14.742-6.489,14.742-14.465V44.258C314,36.282,307.387,29.793,299.258,29.793z M300,269.742
		c0,0.135-0.26,0.465-0.742,0.465H14.741c-0.481,0-0.741-0.33-0.741-0.465V44.258c0-0.135,0.26-0.465,0.741-0.465h284.517
		c0.482,0,0.742,0.33,0.742,0.465V269.742z"/>
	<path d="M58.809,66.2H31.684c-3.866,0-7,3.134-7,7c0,3.866,3.134,7,7,7h27.125c3.866,0,7-3.134,7-7
		C65.809,69.334,62.675,66.2,58.809,66.2z"/>
	<path d="M103.51,66.2H76.385c-3.866,0-7,3.134-7,7c0,3.866,3.134,7,7,7h27.125c3.866,0,7-3.134,7-7
		C110.51,69.334,107.376,66.2,103.51,66.2z"/>
	<path d="M121.086,80.2h27.125c3.866,0,7-3.134,7-7c0-3.866-3.134-7-7-7h-27.125c-3.866,0-7,3.134-7,7
		C114.086,77.066,117.22,80.2,121.086,80.2z"/>
	<path d="M165.787,80.2h27.125c3.866,0,7-3.134,7-7c0-3.866-3.134-7-7-7h-27.125c-3.866,0-7,3.134-7,7
		C158.787,77.066,161.921,80.2,165.787,80.2z"/>
	<path d="M237.614,66.2h-27.125c-3.866,0-7,3.134-7,7c0,3.866,3.134,7,7,7h27.125c3.866,0,7-3.134,7-7
		C244.614,69.334,241.48,66.2,237.614,66.2z"/>
	<path d="M282.315,66.2H255.19c-3.866,0-7,3.134-7,7c0,3.866,3.134,7,7,7h27.125c3.866,0,7-3.134,7-7
		C289.315,69.334,286.182,66.2,282.315,66.2z"/>
	<path d="M58.809,233.8H31.684c-3.866,0-7,3.134-7,7c0,3.866,3.134,7,7,7h27.125c3.866,0,7-3.134,7-7
		C65.809,236.934,62.675,233.8,58.809,233.8z"/>
	<path d="M103.51,233.8H76.385c-3.866,0-7,3.134-7,7c0,3.866,3.134,7,7,7h27.125c3.866,0,7-3.134,7-7
		C110.51,236.934,107.376,233.8,103.51,233.8z"/>
	<path d="M148.211,233.8h-27.125c-3.866,0-7,3.134-7,7c0,3.866,3.134,7,7,7h27.125c3.866,0,7-3.134,7-7
		C155.211,236.934,152.077,233.8,148.211,233.8z"/>
	<path d="M192.912,233.8h-27.125c-3.866,0-7,3.134-7,7c0,3.866,3.134,7,7,7h27.125c3.866,0,7-3.134,7-7
		C199.912,236.934,196.778,233.8,192.912,233.8z"/>
	<path d="M237.614,233.8h-27.125c-3.866,0-7,3.134-7,7c0,3.866,3.134,7,7,7h27.125c3.866,0,7-3.134,7-7
		C244.614,236.934,241.48,233.8,237.614,233.8z"/>
	<path d="M282.315,233.8H255.19c-3.866,0-7,3.134-7,7c0,3.866,3.134,7,7,7h27.125c3.866,0,7-3.134,7-7
		C289.315,236.934,286.182,233.8,282.315,233.8z"/>
	<path d="M127.87,103.971c-6.272,0-10.825,4.934-10.825,11.731v82.596c0,6.798,4.553,11.731,10.825,11.731
		c2.163,0,4.337-0.6,6.463-1.783l74.186-41.299c4.089-2.276,6.434-5.902,6.434-9.947s-2.345-7.671-6.434-9.947l-74.186-41.299
		C132.207,104.57,130.033,103.971,127.87,103.971z M131.045,194.053l0.003-74.105L197.604,157L131.045,194.053z"/>
</g>
<g>
</g>
<g>
</g>
<g>
</g>
<g>
</g>
<g>
</g>
<g>
</g>
<g>
</g>
<g>
</g>
<g>
</g>
<g>
</g>
<g>
</g>
<g>
</g>
<g>
</g>
<g>
</g>
<g>
</g>
</svg>
