<?xml version="1.0" encoding="iso-8859-1"?>
<!-- Generator: Adobe Illustrator 19.0.0, SVG Export Plug-In . SVG Version: 6.00 Build 0)  -->
<svg version="1.1" id="Layer_1" xmlns="http://www.w3.org/2000/svg" xmlns:xlink="http://www.w3.org/1999/xlink" x="0px" y="0px"
	 viewBox="0 0 512 512" style="enable-background:new 0 0 512 512;" xml:space="preserve">
<g>
	<g>
		<path d="M479.934,0H32.066C14.357,0,0,14.357,0,32.066v447.867C0,497.643,14.357,512,32.066,512h447.867
			C497.643,512,512,497.643,512,479.934V32.066C512,14.357,497.643,0,479.934,0z M490.667,479.934
			c0,5.928-4.805,10.733-10.733,10.733H32.066c-5.928,0-10.733-4.805-10.733-10.733V32.066c0-5.928,4.805-10.733,10.733-10.733
			h447.867c5.928,0,10.733,4.805,10.733,10.733V479.934z"/>
	</g>
</g>
<g>
	<g>
		<path d="M290.421,168.032c-2.538-8.824-7.01-16.621-13.418-23.392s-15.112-12.088-26.112-15.957
			c-11-3.87-24.963-5.803-41.888-5.803h-95.382V384h24.661V268.672h55.851c12.088,0,24.117-1.088,36.085-3.264
			c11.968-2.177,22.667-5.984,32.096-11.425c9.43-5.439,17.107-12.874,23.029-22.304c5.923-9.429,8.885-21.397,8.885-35.904
			C294.229,186.104,292.96,176.856,290.421,168.032z M264.309,220.981c-3.506,6.891-8.461,12.331-14.869,16.32
			c-6.408,3.989-14.206,6.709-23.392,8.16c-9.187,1.45-19.584,2.176-31.189,2.176h-56.576V143.915h63.829
			c23.453,0,40.557,4.232,51.317,12.693c10.761,8.461,16.139,20.915,16.139,37.355C269.568,205.085,267.816,214.09,264.309,220.981z
			"/>
	</g>
</g>
<g>
	<g>
		<path d="M380,199.946c-9.549,5.922-17.346,16.382-23.392,31.371h-0.725v-35.178h-21.761V384h21.761v-92.117
			c0-10.398,0.906-20.371,2.72-29.92c1.813-9.55,5.077-17.832,9.792-24.843c4.715-7.01,11.061-12.573,19.04-16.682
			c7.978-4.109,18.133-6.046,30.464-5.803v-23.574C402.184,191.061,389.549,194.024,380,199.946z"/>
	</g>
</g>
<g>
</g>
<g>
</g>
<g>
</g>
<g>
</g>
<g>
</g>
<g>
</g>
<g>
</g>
<g>
</g>
<g>
</g>
<g>
</g>
<g>
</g>
<g>
</g>
<g>
</g>
<g>
</g>
<g>
</g>
</svg>
