<svg viewBox="0 0 512.00101 512" xmlns="http://www.w3.org/2000/svg"><path d="m470 0h-95.667969c-5.519531 0-10 4.476562-10 10s4.480469 10 10 10h60.046875v471.996094h-207.167968v-134.59375c.410156.003906.820312.023437 1.230468.023437 19.636719 0 38.925782-5.085937 56.050782-14.8125-.320313 1.464844-.492188 2.96875-.492188 4.503907v63.839843c0 7.714844 4.207031 14.808594 10.976562 18.511719 3.164063 1.730469 6.648438 2.589844 10.125 2.589844 3.964844 0 7.925782-1.121094 11.386719-3.339844l49.800781-31.917969c6.082032-3.898437 9.710938-10.539062 9.710938-17.765625 0-7.226562-3.628906-13.863281-9.710938-17.765625l-49.800781-31.917969c-2.972656-1.90625-6.316406-2.988281-9.714843-3.261718.875-.828125 1.746093-1.667969 2.597656-2.527344 2.445312-2.460938 3.4375-6.015625 2.625-9.386719-.8125-3.375-3.316406-6.085937-6.613282-7.160156l-78.167968-25.542969v-261.472656h56.457031c5.523437 0 10-4.476562 10-10s-4.476563-10-10-10h-93.667969c-23.15625 0-42 18.839844-42 42v132.980469l-33.625 10.859375c-4.128906 1.332031-6.925781 5.175781-6.925781 9.515625v46.882812l-27.496094-9.195312c13.703125-9.230469 22.738281-24.886719 22.738281-42.617188 0-28.3125-23.035156-51.34375-51.347656-51.34375s-51.347656 23.03125-51.347656 51.34375c0 22.144531 14.09375 41.058594 33.78125 48.25.070312.027344.136719.058594.207031.082031l51.933594 17.367188-51.933594 17.367188c-.070312.023437-.136719.058593-.207031.082031-19.6875 7.191406-33.78125 26.105469-33.78125 48.25 0 28.3125 23.035156 51.347656 51.34375 51.347656 28.316406 0 51.347656-23.035156 51.347656-51.347656 0-17.726563-9.03125-33.386719-22.734375-42.617188l27.492188-9.191406v46.878906c0 4.339844 2.800781 8.183594 6.929687 9.515625l33.625 10.859375v132.726563c0 23.160156 18.839844 42 42 42h279.996094c23.160156 0 42-18.839844 42-42v-427.996094c0-23.160156-18.839844-42-42-42zm-114.503906 378.109375c.136718.089844.503906.324219.503906.925781 0 .601563-.367188.839844-.503906.929688l-49.800782 31.917968c-.164062.105469-.550781.351563-1.121093.039063-.570313-.3125-.570313-.773437-.570313-.964844v-63.839843c0-.195313 0-.652344.570313-.964844.207031-.113282.390625-.152344.546875-.152344.273437 0 .472656.125.574218.191406zm136.503906-112.109375v60h-37.621094v-60zm-37.621094-20v-60h37.621094v60zm37.621094-80h-37.621094v-60h37.621094zm-37.621094 180h37.621094v60h-37.621094zm15.621094-326c12.132812 0 22 9.871094 22 22v44h-37.621094v-66zm-301.996094 242.125v-76.125h39.207032v60h-9.542969c-5.523438 0-10 4.476562-10 10 0 5.519531 4.476562 10 10 10h9.542969v8.9375zm39.207032-96.125h-39.207032v-60h39.207032zm-17.210938-146h17.210938v66h-39.207032v-44c0-12.128906 9.867188-22 21.996094-22zm-62.550781 182.632812 20.554687-6.636718v39.625l-20.554687 6.71875zm-76.105469-43.550781c17.285156 0 31.347656 14.0625 31.347656 31.34375 0 17.285157-14.0625 31.347657-31.347656 31.347657-3.234375 0-6.355469-.492188-9.296875-1.40625l-.160156-.054688c-12.675781-4.023438-21.886719-15.898438-21.886719-29.886719 0-17.285156 14.0625-31.34375 31.34375-31.34375zm0 131.394531c17.285156 0 31.347656 14.0625 31.347656 31.347657 0 17.285156-14.0625 31.347656-31.347656 31.347656-17.28125 0-31.34375-14.0625-31.34375-31.347656 0-13.988281 9.210938-25.863281 21.886719-29.882813l.160156-.054687c2.941406-.914063 6.0625-1.410157 9.296875-1.410157zm76.105469-20.5625 154.691406 50.546876c-23.9375 16.746093-54.398437 21.546874-82.917969 12.335937l-71.773437-23.179687zm65.628906 81.914063c4.675781 1.507813 9.398437 2.695313 14.132813 3.589844v50.582031h-39.207032v-62.269531zm-25.074219 118.167969v-44h39.207032v66h-17.210938c-12.128906 0-21.996094-9.867188-21.996094-22zm301.996094 22h-15.621094v-66h37.621094v44c0 12.132812-9.867188 22-22 22zm0 0"/><path d="m330 20c2.632812 0 5.210938-1.070312 7.070312-2.929688 1.859376-1.859374 2.929688-4.441406 2.929688-7.070312s-1.070312-5.210938-2.929688-7.070312c-1.859374-1.859376-4.4375-2.929688-7.070312-2.929688-2.628906 0-5.207031 1.070312-7.070312 2.929688-1.859376 1.859374-2.929688 4.441406-2.929688 7.070312s1.070312 5.210938 2.929688 7.070312c1.863281 1.859376 4.441406 2.929688 7.070312 2.929688zm0 0"/><path d="m247.667969 246c-5.523438 0-10 4.476562-10 10 0 5.519531 4.476562 10 10 10h10c5.523437 0 10-4.480469 10-10 0-5.523438-4.476563-10-10-10zm0 0"/><path d="m407.667969 266c5.523437 0 10-4.480469 10-10 0-5.523438-4.476563-10-10-10h-10c-5.523438 0-10 4.476562-10 10 0 5.519531 4.476562 10 10 10zm0 0"/><path d="m307.667969 246h-10c-5.523438 0-10 4.476562-10 10 0 5.519531 4.476562 10 10 10h10c5.523437 0 10-4.480469 10-10 0-5.523438-4.476563-10-10-10zm0 0"/><path d="m357.667969 246h-10c-5.523438 0-10 4.476562-10 10 0 5.519531 4.476562 10 10 10h10c5.523437 0 10-4.480469 10-10 0-5.523438-4.476563-10-10-10zm0 0"/><path d="m284 101.042969v63.835937c0 7.71875 4.207031 14.8125 10.980469 18.515625 3.160156 1.730469 6.644531 2.589844 10.121093 2.589844 3.96875 0 7.925782-1.117187 11.386719-3.339844l49.800781-31.917969c6.082032-3.898437 9.710938-10.539062 9.710938-17.765624 0-7.226563-3.628906-13.863282-9.710938-17.765626l-49.800781-31.917968c-6.496093-4.164063-14.738281-4.449219-21.511719-.75-6.769531 3.703125-10.976562 10.796875-10.976562 18.515625zm20 0c0-.195313 0-.652344.574219-.964844.207031-.113281.390625-.152344.546875-.152344.273437 0 .46875.125.574218.191407l49.796876 31.917968c.140624.089844.507812.324219.507812.925782 0 .601562-.367188.839843-.507812.929687l-49.796876 31.917969c-.164062.101562-.550781.351562-1.121093.039062-.574219-.3125-.574219-.773437-.574219-.96875zm0 0"/></svg>