<svg height="512pt" viewBox="0 -12 512 511" width="512pt" xmlns="http://www.w3.org/2000/svg"><path d="m153.804688 414.101562c-2.996094 0-5.992188-.765624-8.667969-2.3125-5.386719-3.089843-8.601563-8.625-8.601563-14.804687v-128.367187c0-6.167969 3.207032-11.699219 8.589844-14.796876 5.378906-3.097656 12.050781-3.070312 17.417969.027344l110.515625 64.175782c5.351562 3.109374 8.542968 8.644531 8.542968 14.78125 0 6.152343-3.203124 11.664062-8.542968 14.773437l-110.515625 64.175781c-2.6875 1.5625-5.707031 2.347656-8.738281 2.347656zm.164062-145.492187-.367188 128.375v.035156l110.878907-64.199219zm0 0"/><path d="m365.296875 486.898438h-338.058594c-15.019531 0-27.238281-12.21875-27.238281-27.226563v-252.742187c0-15.011719 12.21875-27.230469 27.238281-27.230469h338.058594c15.015625 0 27.238281 12.21875 27.238281 27.230469v252.730468c0 15.019532-12.222656 27.238282-27.238281 27.238282zm-338.058594-290.132813c-5.605469 0-10.171875 4.558594-10.171875 10.164063v252.730468c0 5.617188 4.566406 10.171875 10.171875 10.171875h338.058594c5.605469 0 10.167969-4.554687 10.167969-10.160156v-252.742187c0-5.605469-4.5625-10.164063-10.167969-10.164063zm0 0"/><path d="m492.363281 469.832031c-3.019531 0-6.039062-.707031-8.855469-2.140625l-.488281-.265625-107.554687-63.957031v-140.339844l107.566406-63.957031c6.558594-3.378906 13.660156-3.097656 19.496094.480469 5.929687 3.632812 9.472656 9.992187 9.472656 16.996094v233.300781c0 7.007812-3.542969 13.363281-9.472656 17-3.140625 1.917969-6.648438 2.882812-10.164063 2.882812zm-.929687-17.261719c.90625.382813 1.683594.144532 2.175781-.179687.496094-.296875 1.324219-1.015625 1.324219-2.441406v-233.300781c0-1.425782-.828125-2.140626-1.324219-2.441407-.527344-.332031-1.355469-.59375-2.335937-.101562l-98.738282 58.726562v120.933594zm0 0"/><path d="m93.867188 196.765625c-42.351563 0-76.800782-34.449219-76.800782-76.800781 0-42.347656 34.449219-76.796875 76.800782-76.796875 42.351562 0 76.800781 34.449219 76.800781 76.796875 0 42.351562-34.449219 76.800781-76.800781 76.800781zm0-136.53125c-32.9375 0-59.734376 26.800781-59.734376 59.730469 0 32.933594 26.796876 59.734375 59.734376 59.734375s59.734374-26.800781 59.734374-59.734375c0-32.929688-26.796874-59.730469-59.734374-59.730469zm0 0"/><path d="m251.734375 196.765625c-54.109375 0-98.132813-44.023437-98.132813-98.132813 0-54.109374 44.023438-98.132812 98.132813-98.132812s98.132813 44.023438 98.132813 98.132812c0 54.109376-44.023438 98.132813-98.132813 98.132813zm0-179.199219c-44.699219 0-81.066406 36.371094-81.066406 81.066406 0 44.699219 36.367187 81.066407 81.066406 81.066407 44.695313 0 81.066406-36.367188 81.066406-81.066407 0-44.695312-36.371093-81.066406-81.066406-81.066406zm0 0"/><path d="m251.734375 162.632812c-35.285156 0-64-28.707031-64-64 0-35.292968 28.714844-64 64-64 4.710937 0 8.53125 3.816407 8.53125 8.535157s-3.820313 8.53125-8.53125 8.53125c-25.882813 0-46.933594 21.0625-46.933594 46.933593 0 25.875 21.050781 46.933594 46.933594 46.933594 25.878906 0 46.933594-21.058594 46.933594-46.933594 0-4.71875 3.820312-8.53125 8.53125-8.53125 4.710937 0 8.535156 3.8125 8.535156 8.53125 0 35.292969-28.707031 64-64 64zm0 0"/><path d="m93.867188 162.632812c-23.527344 0-42.667969-19.140624-42.667969-42.667968 0-4.71875 3.824219-8.53125 8.535156-8.53125s8.53125 3.8125 8.53125 8.53125c0 14.117187 11.488281 25.601562 25.601563 25.601562 14.113281 0 25.597656-11.484375 25.597656-25.601562 0-14.113282-11.484375-25.597656-25.597656-25.597656-4.710938 0-8.535157-3.816407-8.535157-8.535157s3.824219-8.53125 8.535157-8.53125c23.527343 0 42.667968 19.140625 42.667968 42.664063 0 23.527344-19.140625 42.667968-42.667968 42.667968zm0 0"/></svg>